<mxfile host="Electron" modified="2023-09-05T08:59:30.741Z" agent="Mozilla/5.0 (Windows NT 10.0; Win64; x64) AppleWebKit/537.36 (KHTML, like Gecko) draw.io/21.6.8 Chrome/114.0.5735.289 Electron/25.5.0 Safari/537.36" etag="gajpJ9IwSzNJfTiPNeb5" version="21.6.8" type="device">
  <diagram name="Page-1" id="5ORU_S3z93QaeBdf6X3-">
    <mxGraphModel dx="1098" dy="940" grid="1" gridSize="10" guides="1" tooltips="1" connect="1" arrows="1" fold="1" page="1" pageScale="1" pageWidth="850" pageHeight="1100" math="0" shadow="0">
      <root>
        <mxCell id="0" />
        <mxCell id="1" parent="0" />
        <mxCell id="jNVSIsMxX7lY5gGZdUu5-8" value="control &lt;br&gt;commands" style="edgeStyle=orthogonalEdgeStyle;rounded=0;orthogonalLoop=1;jettySize=auto;html=1;exitX=0;exitY=0.25;exitDx=0;exitDy=0;entryX=1;entryY=0.25;entryDx=0;entryDy=0;" edge="1" parent="1" source="jNVSIsMxX7lY5gGZdUu5-1" target="jNVSIsMxX7lY5gGZdUu5-5">
          <mxGeometry x="0.0667" y="-20" relative="1" as="geometry">
            <mxPoint as="offset" />
          </mxGeometry>
        </mxCell>
        <mxCell id="jNVSIsMxX7lY5gGZdUu5-1" value="Server" style="rounded=0;whiteSpace=wrap;html=1;" vertex="1" parent="1">
          <mxGeometry x="330" y="315" width="120" height="60" as="geometry" />
        </mxCell>
        <mxCell id="jNVSIsMxX7lY5gGZdUu5-13" value="sensor&amp;nbsp;&lt;br&gt;and actuator&lt;br&gt;data" style="edgeStyle=orthogonalEdgeStyle;rounded=0;orthogonalLoop=1;jettySize=auto;html=1;exitX=1;exitY=0.75;exitDx=0;exitDy=0;entryX=0;entryY=0.75;entryDx=0;entryDy=0;" edge="1" parent="1" source="jNVSIsMxX7lY5gGZdUu5-1" target="jNVSIsMxX7lY5gGZdUu5-12">
          <mxGeometry y="-30" relative="1" as="geometry">
            <mxPoint x="510" y="300" as="targetPoint" />
            <mxPoint as="offset" />
          </mxGeometry>
        </mxCell>
        <mxCell id="jNVSIsMxX7lY5gGZdUu5-3" value="" style="rounded=0;whiteSpace=wrap;html=1;" vertex="1" parent="1">
          <mxGeometry x="90" y="295" width="120" height="55" as="geometry" />
        </mxCell>
        <mxCell id="jNVSIsMxX7lY5gGZdUu5-4" value="" style="rounded=0;whiteSpace=wrap;html=1;" vertex="1" parent="1">
          <mxGeometry x="100" y="305" width="120" height="60" as="geometry" />
        </mxCell>
        <mxCell id="jNVSIsMxX7lY5gGZdUu5-6" value="sensor and &lt;br&gt;actuator data" style="edgeStyle=orthogonalEdgeStyle;rounded=0;orthogonalLoop=1;jettySize=auto;html=1;entryX=0;entryY=0.75;entryDx=0;entryDy=0;exitX=1;exitY=0.75;exitDx=0;exitDy=0;" edge="1" parent="1" source="jNVSIsMxX7lY5gGZdUu5-5" target="jNVSIsMxX7lY5gGZdUu5-1">
          <mxGeometry x="-0.0667" y="-20" relative="1" as="geometry">
            <mxPoint x="220" y="350" as="sourcePoint" />
            <mxPoint as="offset" />
          </mxGeometry>
        </mxCell>
        <mxCell id="jNVSIsMxX7lY5gGZdUu5-5" value="Sensor/actuator nodes" style="rounded=0;whiteSpace=wrap;html=1;" vertex="1" parent="1">
          <mxGeometry x="110" y="315" width="120" height="60" as="geometry" />
        </mxCell>
        <mxCell id="jNVSIsMxX7lY5gGZdUu5-10" value="" style="rounded=0;whiteSpace=wrap;html=1;" vertex="1" parent="1">
          <mxGeometry x="570" y="295" width="120" height="55" as="geometry" />
        </mxCell>
        <mxCell id="jNVSIsMxX7lY5gGZdUu5-11" value="" style="rounded=0;whiteSpace=wrap;html=1;" vertex="1" parent="1">
          <mxGeometry x="560" y="305" width="120" height="60" as="geometry" />
        </mxCell>
        <mxCell id="jNVSIsMxX7lY5gGZdUu5-14" value="control&lt;br&gt;commands" style="edgeStyle=orthogonalEdgeStyle;rounded=0;orthogonalLoop=1;jettySize=auto;html=1;exitX=0;exitY=0.25;exitDx=0;exitDy=0;entryX=1;entryY=0.25;entryDx=0;entryDy=0;" edge="1" parent="1" source="jNVSIsMxX7lY5gGZdUu5-12" target="jNVSIsMxX7lY5gGZdUu5-1">
          <mxGeometry y="-20" relative="1" as="geometry">
            <mxPoint as="offset" />
          </mxGeometry>
        </mxCell>
        <mxCell id="jNVSIsMxX7lY5gGZdUu5-12" value="Control panel nodes" style="rounded=0;whiteSpace=wrap;html=1;" vertex="1" parent="1">
          <mxGeometry x="550" y="315" width="120" height="60" as="geometry" />
        </mxCell>
      </root>
    </mxGraphModel>
  </diagram>
</mxfile>
